<svg xmlns="http://www.w3.org/2000/svg" width="48" height="48" viewBox="0 0 48 48" fill="none"><path d="M22.1649 6.07998C23.1049 6.05343 24.0112 5.96391 24.9095 6.01599C26.0788 6.0838 27.2422 6.26064 28.4075 6.39671C29.8067 6.5601 31.1479 6.96518 32.4672 7.4376C34.4676 8.15384 36.3405 9.12034 38.0126 10.4519C38.5291 10.8632 39.0468 11.2788 39.5211 11.7375C41.4327 13.586 42.8539 15.747 43.5102 18.3596C43.7009 19.1185 43.8372 19.9003 43.9023 20.6798C43.9846 21.6638 44.0313 22.6596 43.9759 23.6437C43.9277 24.5013 43.7622 25.3604 43.568 26.2C43.1341 28.0752 42.3746 29.8104 41.2362 31.3703C40.4356 32.4676 39.5642 33.5013 38.4627 34.2992C37.4389 35.0407 36.4137 35.7965 35.316 36.4142C33.9673 37.1732 32.5296 37.7662 31.0296 38.1719C30.1091 38.421 29.1828 38.6523 28.2507 38.851C27.6367 38.9819 27.0101 39.0713 26.3847 39.1245C25.4382 39.205 24.486 39.2161 23.5397 39.297C22.5406 39.3823 21.5565 39.2984 20.5746 39.1325C19.8187 39.0047 19.0679 38.8162 18.3071 38.7604C17.971 38.7356 17.6092 38.9555 17.2707 39.0929C15.145 39.9562 13.0214 40.8245 10.8997 41.6976C9.97318 42.0789 9.05456 42.4798 8.12834 42.8619C7.96723 42.9284 7.78617 42.9457 7.5534 43C7.84401 41.7892 8.12339 40.6433 8.39354 39.4952C8.74554 37.9992 9.09021 36.5015 9.438 35.0044C9.52738 34.6197 9.19756 34.4383 9.01415 34.22C7.97613 32.9848 6.93383 31.7561 6.08163 30.3766C5.26179 29.0494 4.64979 27.6379 4.38521 26.0937C4.22173 25.1394 4.06411 24.178 4.00741 23.2135C3.96567 22.5035 4.11268 21.7841 4.13791 21.0675C4.1779 19.9322 4.48478 18.8557 4.86587 17.8071C5.4118 16.3052 6.18788 14.9184 7.22267 13.698C7.94908 12.8413 8.67315 11.9734 9.48087 11.1977C10.9536 9.78351 12.6544 8.70393 14.5318 7.89237C15.7023 7.38635 16.896 6.96824 18.1341 6.68765C18.9563 6.50131 19.7927 6.37422 20.6262 6.24377C21.1231 6.16601 21.6268 6.13307 22.1649 6.07998ZM14.1822 16.4656C14.1108 16.5432 14.0286 16.6134 13.9694 16.6996C12.7726 18.4452 12.5747 20.3434 13.1367 22.3505C13.6249 24.0939 14.7155 25.4678 15.9303 26.7284C17.0382 27.8781 18.2418 28.9351 19.4153 30.0194C19.978 30.5392 20.5616 31.037 21.149 31.5285C22.0012 32.2416 22.8726 32.9316 23.7202 33.65C23.9641 33.8567 24.131 33.8449 24.3552 33.6334C24.7236 33.2863 25.1116 32.9597 25.5 32.635C26.5517 31.7556 27.621 30.8972 28.6583 30.0011C29.5173 29.2591 30.385 28.5183 31.1682 27.6987C32.1016 26.722 33.0362 25.7244 33.8133 24.6233C35.0139 22.9223 35.515 20.9973 35.0558 18.9054C34.6888 17.234 33.7551 15.9597 32.2946 15.0795C31.2481 14.4489 30.1139 14.2174 28.9025 14.2788C27.8845 14.3303 26.9242 14.6024 26.0968 15.1749C25.3465 15.694 24.6853 16.3439 23.9847 16.9361C20.885 13.1711 16.4261 13.7131 14.1822 16.4656Z" fill="#D93A3A"></path></svg>