<svg xmlns="http://www.w3.org/2000/svg" viewBox="0 0 1310 390" fill="none"><mask id="a" width="1300" height="390" x="5" y="0" maskUnits="userSpaceOnUse" style="mask-type:luminance"><path fill="#fff" d="M1305 0H5v390h1300z"/></mask><g mask="url(#a)"><path fill="#000" d="M1305 350.906c0 5.138-.97 10.225-2.84 14.971a39.2 39.2 0 0 1-8.12 12.688 37.4 37.4 0 0 1-12.15 8.471 35.9 35.9 0 0 1-14.32 2.964H42.484c-9.93.012-19.456-4.101-26.485-11.432C8.968 371.237 5.012 361.287 5 350.906V39.145c.013-10.385 3.968-20.34 10.996-27.68C23.023 4.127 32.55.004 42.484 0H1267.56c4.92 0 9.78 1.013 14.32 2.98a37.4 37.4 0 0 1 12.16 8.486 39.4 39.4 0 0 1 8.11 12.7c1.88 4.749 2.85 9.839 2.84 14.979z"/><path fill="#fff" d="M295.273 192.564c-.28-31.371 25.427-46.633 26.602-47.343-14.558-21.444-37.123-24.374-45.052-24.607-18.953-2.015-37.336 11.456-46.99 11.456-9.847 0-24.713-11.262-40.736-10.931-20.618.321-39.908 12.382-50.487 31.109-21.833 38.185-5.549 94.3 15.368 125.165 10.464 15.126 22.69 31.994 38.694 31.401 15.656-.642 21.505-10.074 40.399-10.074 18.72 0 24.212 10.074 40.533 9.695 16.804-.263 27.382-15.185 37.48-30.438 12.092-17.316 16.947-34.389 17.14-35.265-.386-.136-32.623-12.576-32.951-50.168m-30.832-92.255c8.422-10.639 14.183-25.113 12.584-39.801-12.189.545-27.431 8.517-36.208 18.922-7.766 9.17-14.702 24.198-12.911 38.331 13.692 1.032 27.749-6.978 36.535-17.452M522.075 306.649h-21.88L488.209 268.6h-41.66l-11.418 38.049h-21.303l41.285-129.537h25.494zm-37.479-54.012-10.839-33.825c-1.147-3.455-3.305-11.593-6.464-24.402h-.386c-1.272 5.509-3.305 13.646-6.089 24.402l-10.657 33.825zm143.444 6.161c0 15.885-4.268 28.442-12.814 37.66-7.65 8.205-17.16 12.303-28.5 12.303-12.246 0-21.053-4.409-26.4-13.248v49.01h-20.541V243.944c0-9.977-.26-20.207-.762-30.7h18.066l1.147 14.806h.385c6.85-11.155 17.246-16.732 31.198-16.732 10.906 0 20.011 4.35 27.295 13.061 7.275 8.732 10.926 20.198 10.926 34.419m-20.927.759c0-9.091-2.023-16.586-6.089-22.494-4.442-6.142-10.406-9.218-17.882-9.218-5.068 0-9.674 1.713-13.788 5.091-4.124 3.406-6.821 7.854-8.084 13.364a27.4 27.4 0 0 0-.953 6.318v15.583c0 6.784 2.062 12.517 6.185 17.209 4.123 4.672 9.481 7.018 16.071 7.018 7.737 0 13.759-3.027 18.065-9.033 4.317-6.025 6.475-13.967 6.475-23.838m127.267-.759c0 15.885-4.269 28.442-12.814 37.66-7.66 8.205-17.16 12.303-28.51 12.303-12.246 0-21.052-4.409-26.399-13.248v49.01h-20.542V243.944c0-9.977-.26-20.207-.761-30.7h18.065l1.147 14.806h.385c6.841-11.155 17.237-16.732 31.198-16.732 10.896 0 20.001 4.35 27.305 13.061 7.264 8.732 10.926 20.198 10.926 34.419m-20.936.759c0-9.091-2.034-16.586-6.099-22.494-4.443-6.142-10.387-9.218-17.864-9.218-5.068 0-9.673 1.713-13.806 5.091-4.124 3.406-6.812 7.854-8.075 13.364-.625 2.569-.963 4.662-.963 6.318v15.583c0 6.784 2.071 12.517 6.175 17.209 4.125 4.662 9.481 7.018 16.091 7.018 7.746 0 13.769-3.027 18.066-9.033 4.316-6.025 6.475-13.967 6.475-23.838m139.83 10.756c0 11.028-3.816 19.993-11.399 26.913-8.343 7.554-19.992 11.34-34.926 11.34-13.797 0-24.857-2.686-33.202-8.069l4.75-17.296c9.009 5.392 18.904 8.079 29.676 8.079 7.746 0 13.768-1.773 18.065-5.286 4.307-3.524 6.485-8.235 6.485-14.114 0-5.266-1.802-9.675-5.338-13.267-3.555-3.582-9.433-6.92-17.69-9.987-22.449-8.459-33.683-20.83-33.683-37.104 0-10.63 3.969-19.332 11.889-26.135 7.92-6.795 18.423-10.192 31.486-10.192 11.669 0 21.391 2.054 29.107 6.152l-5.154 16.917c-7.265-3.971-15.464-5.957-24.636-5.957-7.245 0-12.93 1.801-16.996 5.383-3.42 3.202-5.155 7.105-5.155 11.739 0 5.11 1.976 9.354 5.906 12.682 3.412 3.067 9.635 6.406 18.634 9.987 11.042 4.498 19.154 9.734 24.347 15.749 5.232 6.016 7.834 13.521 7.834 22.466m68.089-41.495h-22.642v45.349c0 11.535 3.989 17.287 11.985 17.287 3.672 0 6.717-.311 9.125-.963l.569 15.759c-4.047 1.528-9.375 2.297-15.975 2.297q-12.166 0-19.029-7.505c-4.557-5.003-6.85-13.384-6.85-25.18v-47.083h-13.489v-15.573h13.489v-17.103l20.175-6.151v23.254h22.642zm101.957 30.36c0 14.357-4.07 26.144-12.18 35.362-8.49 9.491-19.78 14.221-33.856 14.221-13.585 0-24.387-4.545-32.44-13.627q-12.083-13.652-12.083-34.399c0-14.473 4.163-26.329 12.458-35.548q12.473-13.84 33.587-13.841c13.566 0 24.464 4.556 32.714 13.647 7.88 8.818 11.8 20.207 11.8 34.185m-21.29.477c0-8.556-1.83-15.896-5.505-22.037-4.308-7.417-10.473-11.126-18.461-11.126-8.228 0-14.539 3.709-18.836 11.126-3.681 6.141-5.511 13.607-5.511 22.426 0 8.566 1.83 15.924 5.511 22.047 4.441 7.416 10.637 11.126 18.663 11.126 7.852 0 14.009-3.787 18.46-11.312 3.779-6.287 5.679-13.675 5.679-22.25m88.08-28.16c-2.13-.39-4.29-.582-6.47-.574-7.23 0-12.81 2.745-16.74 8.273-3.42 4.867-5.13 11.019-5.13 18.445v49.01h-20.54v-63.99a655 655 0 0 0-.6-29.405h17.9l.75 17.871h.57c2.17-6.142 5.58-11.096 10.27-14.805a24.64 24.64 0 0 1 14.84-5.002c1.9 0 3.62.135 5.13.379zm91.88 24.032c.05 3.155-.21 6.308-.75 9.413h-61.63c.23 9.227 3.22 16.294 8.94 21.161 5.19 4.341 11.91 6.521 20.15 6.521 9.14 0 17.45-1.459 24.94-4.409l3.22 14.396c-8.75 3.855-19.08 5.772-31 5.772-14.33 0-25.58-4.263-33.78-12.77-8.16-8.517-12.26-19.964-12.26-34.302 0-14.075 3.8-25.803 11.43-35.158 7.97-9.986 18.76-14.98 32.33-14.98 13.32 0 23.41 4.994 30.25 14.98 5.42 7.914 8.16 17.725 8.16 29.376m-19.59-5.382c.14-6.162-1.2-11.467-4-15.954-3.55-5.781-9.01-8.663-16.35-8.663-6.72 0-12.18 2.813-16.35 8.459-3.42 4.487-5.45 9.879-6.08 16.139zM440.591 131.321c-5.713 0-10.656-.282-14.771-.759V67.936a111 111 0 0 1 17.392-1.324c23.557 0 34.406 11.71 34.406 30.797 0 22.018-12.815 33.912-37.027 33.912m3.45-56.679c-3.18 0-5.888.195-8.133.662v47.608c1.214.195 3.546.282 6.821.282 15.436 0 24.223-8.878 24.223-25.502 0-14.825-7.949-23.05-22.911-23.05m67.385 57.156c-13.277 0-21.88-10.015-21.88-23.614 0-14.172 8.787-24.275 22.632-24.275 13.084 0 21.881 9.539 21.881 23.526 0 14.348-9.067 24.363-22.633 24.363m.385-40.433c-7.293 0-11.966 6.891-11.966 16.528 0 9.451 4.77 16.343 11.871 16.343 7.1 0 11.869-7.369 11.869-16.538 0-9.345-4.672-16.333-11.774-16.333m97.958-6.512-14.211 45.904h-9.259l-5.887-19.934a152 152 0 0 1-3.652-14.825h-.192c-.742 5.003-2.149 10.015-3.643 14.825l-6.262 19.934h-9.356l-13.373-45.904h10.377l5.145 21.822a312 312 0 0 1 3.084 14.737h.192c.742-3.864 1.956-8.692 3.738-14.639l6.455-21.91h8.229l6.176 21.443a181 181 0 0 1 3.651 15.116h.27c.655-4.721 1.686-9.733 3.083-15.116l5.521-21.443zm52.317 45.904h-10.097v-26.359c0-8.118-3.084-12.187-9.163-12.187-5.983 0-10.096 5.198-10.096 11.243v27.303h-10.098V97.974c0-4.06-.096-8.41-.376-13.131h8.883l.472 7.086h.28c2.716-4.906 8.228-8.02 14.404-8.02 9.538 0 15.801 7.368 15.801 19.36zm27.846 0h-10.108V63.789h10.108zm36.814 1.041c-13.267 0-21.881-10.015-21.881-23.614 0-14.172 8.787-24.275 22.622-24.275 13.095 0 21.881 9.539 21.881 23.526.01 14.348-9.065 24.363-22.622 24.363m.376-40.433c-7.295 0-11.967 6.891-11.967 16.528 0 9.451 4.779 16.343 11.861 16.343 7.11 0 11.87-7.369 11.87-16.538.009-9.345-4.654-16.333-11.764-16.333m62.057 39.392-.732-5.286h-.269c-3.083 4.254-7.583 6.327-13.287 6.327-8.142 0-13.923-5.762-13.923-13.51 0-11.33 9.722-17.19 26.554-17.19v-.847c0-6.044-3.17-9.071-9.432-9.071-4.48 0-8.412 1.138-11.87 3.406l-2.052-6.706c4.2-2.648 9.442-3.971 15.599-3.971 11.869 0 17.862 6.326 17.862 18.99v16.907c0 4.634.203 8.226.656 10.961zm-1.387-22.864c-11.214 0-16.842 2.744-16.842 9.256 0 4.818 2.901 7.174 6.928 7.174 5.136 0 9.914-3.962 9.914-9.345zm58.869 22.864-.472-7.368h-.28c-2.899 5.568-7.774 8.409-14.586 8.409-10.956 0-19.068-9.733-19.068-23.428 0-14.358 8.411-24.471 19.896-24.471 6.079 0 10.386 2.073 12.815 6.24h.202v-26.35h10.106v54.597c0 4.438.107 8.594.376 12.371zm-1.493-27.011c0-6.424-4.211-11.904-10.637-11.904-7.486 0-12.063 6.706-12.063 16.148 0 9.256 4.75 15.593 11.86 15.593 6.35 0 10.84-5.577 10.84-12.187zm74.188 28.052c-13.267 0-21.871-10.015-21.871-23.614 0-14.172 8.787-24.275 22.623-24.275 13.093 0 21.88 9.539 21.88 23.526.01 14.348-9.057 24.363-22.632 24.363m.376-40.433c-7.284 0-11.957 6.891-11.957 16.528 0 9.451 4.769 16.343 11.86 16.343 7.111 0 11.87-7.369 11.87-16.538.019-9.345-4.653-16.333-11.773-16.333m76.558 39.392h-10.107v-26.359c0-8.118-3.083-12.187-9.163-12.187-5.983 0-10.087 5.198-10.087 11.243v27.303h-10.107V97.974c0-4.06-.097-8.41-.376-13.131h8.884l.472 7.086h.279c2.708-4.906 8.228-8.03 14.395-8.03 9.538 0 15.81 7.368 15.81 19.36zm67.94-38.254h-11.11v22.29c0 5.675 1.95 8.508 5.88 8.508 1.77 0 3.27-.194 4.48-.477l.27 7.748c-1.95.76-4.57 1.139-7.83 1.139-7.95 0-12.72-4.439-12.72-16.061V92.503h-6.63v-7.65h6.63v-8.41l9.92-3.027v11.427h11.11zm53.45 38.254h-10.09v-26.164c0-8.216-3.07-12.372-9.16-12.372-5.24 0-10.11 3.592-10.11 10.863v27.673h-10.09V63.789h10.09v27.576h.2c3.18-5.003 7.79-7.466 13.67-7.466 9.61 0 15.49 7.553 15.49 19.555zm54.76-20.499h-30.29c.19 8.692 5.88 13.598 14.31 13.598 4.48 0 8.61-.76 12.24-2.171l1.58 7.086c-4.3 1.888-9.36 2.832-15.25 2.832-14.2 0-22.61-9.071-22.61-23.137 0-14.074 8.61-24.655 21.48-24.655 11.61 0 18.89 8.692 18.89 21.824.07 1.548-.05 3.101-.35 4.623m-9.25-7.271c0-7.087-3.55-12.09-9.99-12.09-5.8 0-10.39 5.1-11.04 12.09z"/></g></svg>