<svg viewBox="0 0 1300 390" fill="none" aria-hidden="true" xmlns="http://www.w3.org/2000/svg">
<path d="M1300 350.906C1300 356.044 1299.03 361.131 1297.16 365.877C1295.3 370.592 1292.54 374.9 1289.04 378.565C1285.6 382.17 1281.46 385.051 1276.89 387.036C1272.37 388.996 1267.5 390.005 1262.57 390H37.484C27.554 390.012 18.028 385.899 10.999 378.568C3.968 371.237 0.012 361.287 0 350.906V39.145C0.013 28.76 3.968 18.805 10.996 11.465C18.023 4.127 27.55 0.004 37.484 0H1262.56C1267.48 0 1272.34 1.013 1276.88 2.98C1281.46 4.96873 1285.59 7.8541 1289.04 11.466C1292.54 15.1381 1295.29 19.4503 1297.15 24.166C1299.03 28.915 1300 34.005 1299.99 39.145L1300 350.906Z" fill="black"/>
<path d="M290.273 192.564C289.993 161.193 315.7 145.931 316.875 145.221C302.317 123.777 279.752 120.847 271.823 120.614C252.87 118.599 234.487 132.07 224.833 132.07C214.986 132.07 200.12 120.808 184.097 121.139C163.479 121.46 144.189 133.521 133.61 152.248C111.777 190.433 128.061 246.548 148.978 277.413C159.442 292.539 171.668 309.407 187.672 308.814C203.328 308.172 209.177 298.74 228.071 298.74C246.791 298.74 252.283 308.814 268.604 308.435C285.408 308.172 295.986 293.25 306.084 277.997C318.176 260.681 323.031 243.608 323.224 242.732C322.838 242.596 290.601 230.156 290.273 192.564ZM259.441 100.309C267.863 89.67 273.624 75.196 272.025 60.508C259.836 61.053 244.594 69.025 235.817 79.43C228.051 88.6 221.115 103.628 222.906 117.761C236.598 118.793 250.655 110.783 259.441 100.309ZM517.075 306.649H495.195L483.209 268.6H441.549L430.131 306.649H408.828L450.113 177.112H475.607L517.075 306.649ZM479.596 252.637L468.757 218.812C467.61 215.357 465.452 207.219 462.293 194.41H461.907C460.635 199.919 458.602 208.056 455.818 218.812L445.161 252.637H479.596ZM623.04 258.798C623.04 274.683 618.772 287.24 610.226 296.458C602.576 304.663 593.066 308.761 581.726 308.761C569.48 308.761 560.673 304.352 555.326 295.513V344.523H534.785V243.944C534.785 233.967 534.525 223.737 534.023 213.244H552.089L553.236 228.05H553.621C560.471 216.895 570.867 211.318 584.819 211.318C595.725 211.318 604.83 215.668 612.114 224.379C619.389 233.111 623.04 244.577 623.04 258.798ZM602.113 259.557C602.113 250.466 600.09 242.971 596.024 237.063C591.582 230.921 585.618 227.845 578.142 227.845C573.074 227.845 568.468 229.558 564.354 232.936C560.23 236.342 557.533 240.79 556.27 246.3C555.707 248.362 555.387 250.482 555.317 252.618V268.201C555.317 274.985 557.379 280.718 561.502 285.41C565.625 290.082 570.983 292.428 577.573 292.428C585.31 292.428 591.332 289.401 595.638 283.395C599.955 277.37 602.113 269.428 602.113 259.557ZM729.38 258.798C729.38 274.683 725.111 287.24 716.566 296.458C708.906 304.663 699.406 308.761 688.056 308.761C675.81 308.761 667.004 304.352 661.657 295.513V344.523H641.115V243.944C641.115 233.967 640.855 223.737 640.354 213.244H658.419L659.566 228.05H659.951C666.792 216.895 677.188 211.318 691.149 211.318C702.045 211.318 711.15 215.668 718.454 224.379C725.718 233.111 729.38 244.577 729.38 258.798ZM708.444 259.557C708.444 250.466 706.41 242.971 702.345 237.063C697.902 230.921 691.958 227.845 684.481 227.845C679.413 227.845 674.808 229.558 670.675 232.936C666.551 236.342 663.863 240.79 662.6 246.3C661.975 248.869 661.637 250.962 661.637 252.618V268.201C661.637 274.985 663.708 280.718 667.812 285.41C671.937 290.072 677.293 292.428 683.903 292.428C691.649 292.428 697.672 289.401 701.969 283.395C706.285 277.37 708.444 269.428 708.444 259.557ZM848.274 270.313C848.274 281.341 844.458 290.306 836.875 297.226C828.532 304.78 816.883 308.566 801.949 308.566C788.152 308.566 777.092 305.88 768.747 300.497L773.497 283.201C782.506 288.593 792.401 291.28 803.173 291.28C810.919 291.28 816.941 289.507 821.238 285.994C825.545 282.47 827.723 277.759 827.723 271.88C827.723 266.614 825.921 262.205 822.385 258.613C818.83 255.031 812.952 251.693 804.695 248.626C782.246 240.167 771.012 227.796 771.012 211.522C771.012 200.892 774.981 192.19 782.901 185.387C790.821 178.592 801.324 175.195 814.387 175.195C826.056 175.195 835.778 177.249 843.494 181.347L838.34 198.264C831.075 194.293 822.876 192.307 813.704 192.307C806.459 192.307 800.774 194.108 796.708 197.69C793.288 200.892 791.553 204.795 791.553 209.429C791.553 214.539 793.529 218.783 797.459 222.111C800.871 225.178 807.094 228.517 816.093 232.098C827.135 236.596 835.247 241.832 840.44 247.847C845.672 253.863 848.274 261.368 848.274 270.313ZM916.363 228.818H893.721V274.167C893.721 285.702 897.71 291.454 905.706 291.454C909.378 291.454 912.423 291.143 914.831 290.491L915.4 306.25C911.353 307.778 906.025 308.547 899.425 308.547C891.314 308.547 884.971 306.045 880.396 301.042C875.839 296.039 873.546 287.658 873.546 275.862V228.779H860.057V213.206H873.546V196.103L893.721 189.952V213.206H916.363V228.818ZM1018.32 259.178C1018.32 273.535 1014.25 285.322 1006.14 294.54C997.65 304.031 986.36 308.761 972.284 308.761C958.699 308.761 947.897 304.216 939.844 295.134C931.789 286.033 927.761 274.566 927.761 260.735C927.761 246.262 931.924 234.406 940.219 225.187C948.534 215.96 959.73 211.347 973.806 211.346C987.372 211.346 998.27 215.902 1006.52 224.993C1014.4 233.811 1018.32 245.2 1018.32 259.178ZM997.03 259.655C997.03 251.099 995.2 243.759 991.525 237.618C987.217 230.201 981.052 226.492 973.064 226.492C964.836 226.492 958.525 230.201 954.228 237.618C950.547 243.759 948.717 251.225 948.717 260.044C948.717 268.61 950.547 275.968 954.228 282.091C958.669 289.507 964.865 293.217 972.891 293.217C980.743 293.217 986.9 289.43 991.351 281.905C995.13 275.618 997.03 268.23 997.03 259.655ZM1085.11 231.495C1082.98 231.105 1080.82 230.913 1078.64 230.921C1071.41 230.921 1065.83 233.666 1061.9 239.194C1058.48 244.061 1056.77 250.213 1056.77 257.639V306.649H1036.23V242.659C1036.25 232.854 1036.05 223.05 1035.63 213.254H1053.53L1054.28 231.125H1054.85C1057.02 224.983 1060.43 220.029 1065.12 216.32C1069.39 213.083 1074.6 211.327 1079.96 211.318C1081.86 211.318 1083.58 211.453 1085.09 211.697L1085.11 231.495ZM1176.99 255.527C1177.04 258.682 1176.78 261.835 1176.24 264.94H1114.61C1114.84 274.167 1117.83 281.234 1123.55 286.101C1128.74 290.442 1135.46 292.622 1143.7 292.622C1152.84 292.622 1161.15 291.163 1168.64 288.213L1171.86 302.609C1163.11 306.464 1152.78 308.381 1140.86 308.381C1126.53 308.381 1115.28 304.118 1107.08 295.611C1098.92 287.094 1094.82 275.647 1094.82 261.309C1094.82 247.234 1098.62 235.506 1106.25 226.151C1114.22 216.165 1125.01 211.171 1138.58 211.171C1151.9 211.171 1161.99 216.165 1168.83 226.151C1174.25 234.065 1176.99 243.876 1176.99 255.527ZM1157.4 250.145C1157.54 243.983 1156.2 238.678 1153.4 234.191C1149.85 228.41 1144.39 225.528 1137.05 225.528C1130.33 225.528 1124.87 228.341 1120.7 233.987C1117.28 238.474 1115.25 243.866 1114.62 250.126L1157.4 250.145ZM435.591 131.321C429.878 131.321 424.935 131.039 420.82 130.562V67.936C426.574 67.0392 432.389 66.5965 438.212 66.612C461.769 66.612 472.618 78.322 472.618 97.409C472.618 119.427 459.803 131.321 435.591 131.321ZM439.041 74.642C435.861 74.642 433.153 74.837 430.908 75.304V122.912C432.122 123.107 434.454 123.194 437.729 123.194C453.165 123.194 461.952 114.316 461.952 97.692C461.952 82.867 454.003 74.642 439.041 74.642ZM506.426 131.798C493.149 131.798 484.546 121.783 484.546 108.184C484.546 94.012 493.333 83.909 507.178 83.909C520.262 83.909 529.059 93.448 529.059 107.435C529.059 121.783 519.992 131.798 506.426 131.798ZM506.811 91.365C499.518 91.365 494.845 98.256 494.845 107.893C494.845 117.344 499.615 124.236 506.716 124.236C513.816 124.236 518.585 116.867 518.585 107.698C518.585 98.353 513.913 91.365 506.811 91.365ZM604.769 84.853L590.558 130.757H581.299L575.412 110.823C573.947 105.946 572.728 100.998 571.76 95.998H571.568C570.826 101.001 569.419 106.013 567.925 110.823L561.663 130.757H552.307L538.934 84.853H549.311L554.456 106.675C555.602 111.562 556.631 116.476 557.54 121.412H557.732C558.474 117.548 559.688 112.72 561.47 106.773L567.925 84.863H576.154L582.33 106.306C583.763 111.29 584.981 116.333 585.981 121.422H586.251C586.906 116.701 587.937 111.689 589.334 106.306L594.855 84.863L604.769 84.853ZM657.086 130.757H646.989V104.398C646.989 96.28 643.905 92.211 637.826 92.211C631.843 92.211 627.73 97.409 627.73 103.454V130.757H617.632V97.974C617.632 93.914 617.536 89.564 617.256 84.843H626.139L626.611 91.929H626.891C629.607 87.023 635.119 83.909 641.295 83.909C650.833 83.909 657.096 91.277 657.096 103.269L657.086 130.757ZM684.932 130.757H674.824V63.789H684.932V130.757ZM721.746 131.798C708.479 131.798 699.865 121.783 699.865 108.184C699.865 94.012 708.652 83.909 722.487 83.909C735.582 83.909 744.368 93.448 744.368 107.435C744.378 121.783 735.303 131.798 721.746 131.798ZM722.122 91.365C714.827 91.365 710.155 98.256 710.155 107.893C710.155 117.344 714.934 124.236 722.016 124.236C729.126 124.236 733.886 116.867 733.886 107.698C733.895 98.353 729.232 91.365 722.122 91.365ZM784.179 130.757L783.447 125.471H783.178C780.095 129.725 775.595 131.798 769.891 131.798C761.749 131.798 755.968 126.036 755.968 118.288C755.968 106.958 765.69 101.098 782.522 101.098V100.251C782.522 94.207 779.352 91.18 773.09 91.18C768.61 91.18 764.678 92.318 761.22 94.586L759.168 87.88C763.368 85.232 768.61 83.909 774.767 83.909C786.636 83.909 792.629 90.235 792.629 102.899V119.806C792.629 124.44 792.832 128.032 793.285 130.767L784.179 130.757ZM782.792 107.893C771.578 107.893 765.95 110.637 765.95 117.149C765.95 121.967 768.851 124.323 772.878 124.323C778.014 124.323 782.792 120.361 782.792 114.978V107.893ZM841.661 130.757L841.189 123.389H840.909C838.01 128.957 833.135 131.798 826.323 131.798C815.367 131.798 807.255 122.065 807.255 108.37C807.255 94.012 815.666 83.899 827.151 83.899C833.23 83.899 837.537 85.972 839.966 90.139H840.168V63.789H850.274V118.386C850.274 122.824 850.381 126.98 850.65 130.757H841.661ZM840.168 103.746C840.168 97.322 835.957 91.842 829.531 91.842C822.045 91.842 817.468 98.548 817.468 107.99C817.468 117.246 822.218 123.583 829.328 123.583C835.678 123.583 840.168 118.006 840.168 111.396V103.746ZM914.356 131.798C901.089 131.798 892.485 121.783 892.485 108.184C892.485 94.012 901.272 83.909 915.108 83.909C928.201 83.909 936.988 93.448 936.988 107.435C936.998 121.783 927.931 131.798 914.356 131.798ZM914.732 91.365C907.448 91.365 902.775 98.256 902.775 107.893C902.775 117.344 907.544 124.236 914.635 124.236C921.746 124.236 926.505 116.867 926.505 107.698C926.524 98.353 921.852 91.365 914.732 91.365ZM991.29 130.757H981.183V104.398C981.183 96.28 978.1 92.211 972.02 92.211C966.037 92.211 961.933 97.409 961.933 103.454V130.757H951.826V97.974C951.826 93.914 951.729 89.564 951.45 84.843H960.334L960.806 91.929H961.085C963.793 87.023 969.313 83.899 975.48 83.899C985.018 83.899 991.29 91.267 991.29 103.259V130.757ZM1059.23 92.503H1048.12V114.793C1048.12 120.468 1050.07 123.301 1054 123.301C1055.77 123.301 1057.27 123.107 1058.48 122.824L1058.75 130.572C1056.8 131.332 1054.18 131.711 1050.92 131.711C1042.97 131.711 1038.2 127.272 1038.2 115.65V92.503H1031.57V84.853H1038.2V76.443L1048.12 73.416V84.843H1059.23V92.503ZM1112.68 130.757H1102.59V104.593C1102.59 96.377 1099.52 92.221 1093.43 92.221C1088.19 92.221 1083.32 95.813 1083.32 103.084V130.757H1073.23V63.789H1083.32V91.365H1083.52C1086.7 86.362 1091.31 83.899 1097.19 83.899C1106.8 83.899 1112.68 91.452 1112.68 103.454V130.757ZM1167.44 110.258H1137.15C1137.34 118.95 1143.03 123.856 1151.46 123.856C1155.94 123.856 1160.07 123.096 1163.7 121.685L1165.28 128.771C1160.98 130.659 1155.92 131.603 1150.03 131.603C1135.83 131.603 1127.42 122.532 1127.42 108.466C1127.42 94.392 1136.03 83.811 1148.9 83.811C1160.51 83.811 1167.79 92.503 1167.79 105.635C1167.86 107.183 1167.74 108.736 1167.44 110.258ZM1158.19 102.987C1158.19 95.9 1154.64 90.897 1148.2 90.897C1142.4 90.897 1137.81 95.997 1137.16 102.987H1158.19Z" fill="white"/>
</svg>
