<svg viewBox="0 0 24 24" fill="currentColor" aria-hidden="true" xmlns="http://www.w3.org/2000/svg"><path d="M6.42857 7C5.64525 7 5 7.64525 5 8.42857V15.0952C5 15.8786 5.64525 16.5238 6.42857 16.5238H17.8571C18.6405 16.5238 19.2857 15.8786 19.2857 15.0952V8.42857C19.2857 7.64525 18.6405 7 17.8571 7H6.42857ZM6.62574 7.95238H17.659L13.418 12.1869C12.7071 12.8967 11.5699 12.8966 10.8594 12.186L6.62574 7.95238ZM18.3333 8.62481V14.899L15.1916 11.7619L18.3333 8.62481ZM5.95238 8.62574L9.08853 11.7619L5.95238 14.8981V8.62574ZM14.5182 12.4343L17.66 15.5714H6.62574L9.7619 12.4353L10.186 12.8594C11.2602 13.9336 13.0155 13.9344 14.0904 12.8612L14.5182 12.4343Z"/><path d="M6.7619 2C4.13746 2 2 4.13746 2 6.7619V17.2381C2 19.8625 4.13746 22 6.7619 22H17.2381C19.8625 22 22 19.8625 22 17.2381V6.7619C22 4.13746 19.8625 2 17.2381 2H6.7619ZM6.7619 2.95238H17.2381C19.3479 2.95238 21.0476 4.65206 21.0476 6.7619V17.2381C21.0476 19.3479 19.3479 21.0476 17.2381 21.0476H6.7619C4.65206 21.0476 2.95238 19.3479 2.95238 17.2381V6.7619C2.95238 4.65206 4.65206 2.95238 6.7619 2.95238Z"/></svg>
