<svg xmlns="http://www.w3.org/2000/svg" viewBox="0 0 1310 390" fill="none"><mask id="a" width="1300" height="390" x="5" y="0" maskUnits="userSpaceOnUse" style="mask-type:luminance"><path fill="#fff" d="M1305 0H5v390h1300z"/></mask><g mask="url(#a)"><path fill="#000" d="M1256.85 390H53.148C26.185 390 5 368.55 5 341.25V48.75C5 21.45 26.185 0 53.148 0H1256.85c26.96 0 48.15 21.45 48.15 48.75v292.5c0 27.3-21.19 48.75-48.15 48.75"/><path fill="#fff" stroke="#fff" stroke-miterlimit="10" stroke-width=".3" d="M461.449 98.975c0 7.764-1.925 14.556-6.74 19.408-5.777 5.822-12.518 8.734-21.185 8.734s-15.407-2.912-21.185-8.734-8.667-12.615-8.667-21.348c0-8.734 2.889-15.526 8.667-21.349 5.778-5.822 12.518-8.733 21.185-8.733q5.778 0 11.555 2.911c3.853 1.94 6.741 3.882 8.668 6.793l-4.815 4.852c-3.853-4.852-8.668-6.793-15.408-6.793-5.777 0-11.556 1.94-15.407 6.793-4.815 3.881-6.741 9.703-6.741 16.496s1.926 12.615 6.741 16.497 9.63 6.792 15.407 6.792c6.74 0 11.555-1.94 16.37-6.792 2.889-2.911 4.815-6.793 4.815-11.645h-21.185v-7.763h27.925zm44.298-24.259h-26v18.437h24.074v6.793h-24.074v18.437h26v7.763h-33.704V67.923h33.704zm31.777 51.43h-7.704v-51.43h-16.371v-6.793h40.445v6.793h-16.37zm44.297 0V67.923h7.703v58.223zm40.443 0h-7.703v-51.43h-16.37v-6.793h39.481v6.793h-16.37v51.43zm91.482-7.763c-5.778 5.822-12.518 8.734-21.185 8.734s-15.408-2.912-21.185-8.734c-5.778-5.822-8.667-12.615-8.667-21.348 0-8.734 2.889-15.526 8.667-21.349 5.777-5.822 12.518-8.733 21.185-8.733s15.407 2.911 21.185 8.733 8.667 12.615 8.667 21.348c0 8.734-2.889 15.527-8.667 21.349Zm-36.593-4.852c3.853 3.882 9.63 6.793 15.408 6.793s11.556-1.941 15.407-6.793c3.853-3.881 6.741-9.703 6.741-16.497 0-6.792-1.926-12.614-6.741-16.496-3.851-3.881-9.629-6.792-15.407-6.792s-11.555 1.94-15.408 6.792c-3.851 3.882-6.74 9.704-6.74 16.496 0 6.794 1.926 12.616 6.74 16.497Zm55.852 12.615V67.923h8.667l27.926 45.608V67.923h7.704v58.223h-7.704l-29.851-47.549v47.549z"/><path fill="#fff" d="M660.781 211.544c-23.111 0-41.407 17.467-41.407 41.726 0 23.289 18.296 41.727 41.407 41.727s41.408-17.468 41.408-41.727c0-25.23-18.297-41.726-41.408-41.726m0 65.986c-12.517 0-23.111-10.674-23.111-25.229s10.594-25.23 23.111-25.23c12.519 0 23.111 9.704 23.111 25.23 0 14.555-10.592 25.229-23.111 25.229m-89.555-65.986c-23.111 0-41.407 17.467-41.407 41.726 0 23.289 18.296 41.727 41.407 41.727s41.408-17.468 41.408-41.727c0-25.23-18.297-41.726-41.408-41.726m0 65.986c-12.519 0-23.111-10.674-23.111-25.229s10.592-25.23 23.111-25.23 23.111 9.704 23.111 25.23c0 14.555-10.592 25.229-23.111 25.229m-106.889-53.37v17.465h41.408c-.964 9.704-4.815 17.467-9.63 22.319-5.778 5.822-15.408 12.616-31.778 12.616-26 0-45.26-20.379-45.26-46.579s20.223-46.578 45.26-46.578c13.482 0 24.074 5.824 31.778 12.616l12.519-12.616c-10.593-9.704-24.074-17.465-43.334-17.465-34.666 0-64.519 29.11-64.519 64.043s29.853 64.044 64.519 64.044c19.26 0 32.741-5.822 44.296-18.437 11.556-11.644 15.408-28.139 15.408-40.754 0-3.882 0-7.763-.963-10.674zm437.185 13.585c-3.852-9.704-13.481-26.201-34.666-26.201-21.186 0-38.519 16.496-38.519 41.726 0 23.289 17.333 41.727 40.444 41.727 18.297 0 29.853-11.645 33.704-18.437l-13.481-9.704c-4.815 6.793-10.593 11.644-20.223 11.644s-15.407-3.881-20.221-12.614l54.889-23.29zm-55.851 13.584c0-15.526 12.518-24.258 21.185-24.258 6.74 0 13.481 3.881 15.408 8.733zm-45.26 39.786h18.296V169.818h-18.296zm-28.889-70.837c-4.815-4.851-12.518-9.704-22.148-9.704-20.222 0-39.482 18.438-39.482 41.727s18.297 40.754 39.482 40.754c9.63 0 17.333-4.852 21.186-9.704h.962v5.823c0 15.526-8.666 24.259-22.148 24.259-10.593 0-18.297-7.762-20.222-14.555l-15.407 6.793c4.815 10.674 16.37 24.259 36.592 24.259 21.185 0 38.519-12.615 38.519-42.696v-73.748h-17.334zm-21.185 57.252c-12.518 0-23.111-10.674-23.111-25.229s10.593-25.23 23.111-25.23 22.148 10.674 22.148 25.23c0 14.555-9.629 25.229-22.148 25.229M985.3 169.818h-43.333v121.297h18.297v-45.607H985.3c20.22 0 39.48-14.557 39.48-37.845 0-23.289-19.26-37.845-39.48-37.845m.964 58.223h-26v-41.726h26c13.482 0 21.186 11.645 21.186 20.378-.97 10.674-8.667 21.348-21.186 21.348m110.746-17.467c-13.49 0-26.96 5.822-31.79 18.437l16.38 6.793c3.85-6.792 9.62-8.733 16.37-8.733 9.63 0 18.29 5.821 19.25 15.525v.97c-2.89-1.941-10.59-4.851-18.29-4.851-17.33 0-34.67 9.704-34.67 27.171 0 16.496 14.45 27.169 29.86 27.169 12.51 0 18.29-5.822 23.1-11.644h.96v9.704h17.34v-46.577c-1.92-21.349-18.3-33.964-38.51-33.964m-1.93 66.956c-5.78 0-14.45-2.911-14.45-10.674 0-9.704 10.59-12.616 19.27-12.616 7.7 0 11.55 1.942 16.36 3.883-1.93 11.644-11.55 19.407-21.18 19.407m101.1-64.044-20.21 52.4h-.96l-21.19-52.4h-19.26l31.77 73.748-18.28 40.755h18.28l49.12-114.503zm-161.77 77.629h18.3V169.818h-18.3z"/><path fill="url(#b)" d="M105.16 72.773c-2.888 2.912-3.851 7.763-3.851 13.586V300.81c0 5.822 1.926 10.674 4.815 13.585l.962.97L226.494 195.04v-1.94z"/><path fill="url(#c)" d="m265.009 235.802-39.482-39.785v-2.912l39.482-39.785.962.971 47.186 27.17c13.482 7.763 13.482 20.378 0 28.141z"/><path fill="url(#d)" d="m265.971 234.837-40.445-40.755-120.37 121.296c4.815 4.852 11.555 4.852 20.223.97z"/><path fill="url(#e)" d="M265.971 153.32 125.379 72.78c-8.668-4.852-15.408-3.882-20.223.97l120.37 120.326z"/><path fill="#000" d="m265.008 233.867-139.629 79.57c-7.704 4.852-14.445 3.882-19.26 0l-.963.971.963.97c4.815 3.881 11.556 4.852 19.26 0z" opacity=".2"/><path fill="#000" d="M105.16 313.437c-2.888-2.911-3.851-7.763-3.851-13.585v.97c0 5.823 1.926 10.675 4.815 13.586v-.971zm208-106.74-48.148 27.17.963.97 47.185-27.17c6.741-3.882 9.63-8.733 9.63-13.585 0 4.852-3.851 8.733-9.63 12.615" opacity=".12"/><path fill="#fff" d="M125.382 73.75 313.16 181.46c5.779 3.881 9.63 7.762 9.63 12.614 0-4.852-2.889-9.703-9.63-13.585L125.382 72.779c-13.481-7.763-24.073-1.94-24.073 13.585v.97c0-14.555 10.592-21.348 24.073-13.585" opacity=".25"/></g><defs><linearGradient id="b" x1="214.939" x2="52.086" y1="84.515" y2="246.115" gradientUnits="userSpaceOnUse"><stop stop-color="#00a0ff"/><stop offset=".007" stop-color="#00a1ff"/><stop offset=".26" stop-color="#00beff"/><stop offset=".512" stop-color="#00d2ff"/><stop offset=".76" stop-color="#00dfff"/><stop offset="1" stop-color="#00e3ff"/></linearGradient><linearGradient id="c" x1="330.817" x2="97.81" y1="194.086" y2="194.086" gradientUnits="userSpaceOnUse"><stop stop-color="#ffe000"/><stop offset=".409" stop-color="#ffbd00"/><stop offset=".775" stop-color="orange"/><stop offset="1" stop-color="#ff9c00"/></linearGradient><linearGradient id="d" x1="244.083" x2="23.253" y1="216.361" y2="435.506" gradientUnits="userSpaceOnUse"><stop stop-color="#ff3a44"/><stop offset="1" stop-color="#c31162"/></linearGradient><linearGradient id="e" x1="75.275" x2="173.891" y1="1.71" y2="99.573" gradientUnits="userSpaceOnUse"><stop stop-color="#32a071"/><stop offset=".069" stop-color="#2da771"/><stop offset=".476" stop-color="#15cf74"/><stop offset=".801" stop-color="#06e775"/><stop offset="1" stop-color="#00f076"/></linearGradient></defs></svg>