<svg viewBox="0 0 1300 390" fill="none" aria-hidden="true" xmlns="http://www.w3.org/2000/svg">
<path d="M1251.85 390H48.148C21.185 390 0 368.55 0 341.25V48.75C0 21.45 21.185 0 48.148 0H1251.85C1278.81 0 1300 21.45 1300 48.75V341.25C1300 368.55 1278.81 390 1251.85 390Z" fill="black"/>
<path d="M456.449 98.975C456.449 106.739 454.524 113.531 449.709 118.383C443.932 124.205 437.191 127.117 428.524 127.117C419.857 127.117 413.117 124.205 407.339 118.383C401.561 112.561 398.672 105.768 398.672 97.035C398.672 88.301 401.561 81.509 407.339 75.686C413.117 69.864 419.857 66.953 428.524 66.953C432.376 66.953 436.228 67.9233 440.079 69.864C443.932 71.804 446.82 73.746 448.747 76.657L443.932 81.509C440.079 76.657 435.264 74.716 428.524 74.716C422.747 74.716 416.968 76.656 413.117 81.509C408.302 85.39 406.376 91.212 406.376 98.005C406.376 104.798 408.302 110.62 413.117 114.502C417.932 118.384 422.747 121.294 428.524 121.294C435.264 121.294 440.079 119.354 444.894 114.502C447.783 111.591 449.709 107.709 449.709 102.857H428.524V95.094H456.449V98.975ZM500.747 74.716H474.747V93.153H498.821V99.946H474.747V118.383H500.747V126.146H467.043V67.923H500.747V74.716ZM532.524 126.146H524.82V74.716H508.449V67.923H548.894V74.716H532.524V126.146ZM576.821 126.146V67.923H584.524V126.146H576.821ZM617.264 126.146H609.561V74.716H593.191V67.923H632.672V74.716H616.302V126.146H617.264ZM708.746 118.383C702.968 124.205 696.228 127.117 687.561 127.117C678.894 127.117 672.153 124.205 666.376 118.383C660.598 112.561 657.709 105.768 657.709 97.035C657.709 88.301 660.598 81.509 666.376 75.686C672.153 69.864 678.894 66.953 687.561 66.953C696.228 66.953 702.968 69.864 708.746 75.686C714.524 81.508 717.413 88.301 717.413 97.034C717.413 105.768 714.524 112.561 708.746 118.383ZM672.153 113.531C676.006 117.413 681.783 120.324 687.561 120.324C693.339 120.324 699.117 118.383 702.968 113.531C706.821 109.65 709.709 103.828 709.709 97.034C709.709 90.242 707.783 84.42 702.968 80.538C699.117 76.657 693.339 73.746 687.561 73.746C681.783 73.746 676.006 75.686 672.153 80.538C668.302 84.42 665.413 90.242 665.413 97.034C665.413 103.828 667.339 109.65 672.153 113.531ZM728.005 126.146V67.923H736.672L764.598 113.531V67.923H772.302V126.146H764.598L734.747 78.597V126.146H728.005Z" fill="white"/>
<path d="M655.781 211.544C632.67 211.544 614.374 229.011 614.374 253.27C614.374 276.559 632.67 294.997 655.781 294.997C678.892 294.997 697.189 277.529 697.189 253.27C697.189 228.04 678.892 211.544 655.781 211.544ZM655.781 277.53C643.264 277.53 632.67 266.856 632.67 252.301C632.67 237.746 643.264 227.071 655.781 227.071C668.3 227.071 678.892 236.775 678.892 252.301C678.892 266.856 668.3 277.53 655.781 277.53ZM566.226 211.544C543.115 211.544 524.819 229.011 524.819 253.27C524.819 276.559 543.115 294.997 566.226 294.997C589.337 294.997 607.634 277.529 607.634 253.27C607.634 228.04 589.337 211.544 566.226 211.544ZM566.226 277.53C553.707 277.53 543.115 266.856 543.115 252.301C543.115 237.746 553.707 227.071 566.226 227.071C578.745 227.071 589.337 236.775 589.337 252.301C589.337 266.856 578.745 277.53 566.226 277.53ZM459.337 224.16V241.625H500.745C499.781 251.329 495.93 259.092 491.115 263.944C485.337 269.766 475.707 276.56 459.337 276.56C433.337 276.56 414.077 256.181 414.077 229.981C414.077 203.781 434.3 183.403 459.337 183.403C472.819 183.403 483.411 189.227 491.115 196.019L503.634 183.403C493.041 173.699 479.56 165.938 460.3 165.938C425.634 165.938 395.781 195.048 395.781 229.981C395.781 264.914 425.634 294.025 460.3 294.025C479.56 294.025 493.041 288.203 504.596 275.588C516.152 263.944 520.004 247.449 520.004 234.834C520.004 230.952 520.004 227.071 519.041 224.16H459.337ZM896.522 237.745C892.67 228.041 883.041 211.544 861.856 211.544C840.67 211.544 823.337 228.04 823.337 253.27C823.337 276.559 840.67 294.997 863.781 294.997C882.078 294.997 893.634 283.352 897.485 276.56L884.004 266.856C879.189 273.649 873.411 278.5 863.781 278.5C854.151 278.5 848.374 274.619 843.56 265.886L898.449 242.596L896.522 237.745ZM840.671 251.329C840.671 235.803 853.189 227.071 861.856 227.071C868.596 227.071 875.337 230.952 877.264 235.804L840.671 251.329ZM795.411 291.115H813.707V169.818H795.411V291.115ZM766.522 220.278C761.707 215.427 754.004 210.574 744.374 210.574C724.152 210.574 704.892 229.012 704.892 252.301C704.892 275.59 723.189 293.055 744.374 293.055C754.004 293.055 761.707 288.203 765.56 283.351H766.522V289.174C766.522 304.7 757.856 313.433 744.374 313.433C733.781 313.433 726.077 305.671 724.152 298.878L708.745 305.671C713.56 316.345 725.115 329.93 745.337 329.93C766.522 329.93 783.856 317.315 783.856 287.234V213.486H766.522V220.278ZM745.337 277.53C732.819 277.53 722.226 266.856 722.226 252.301C722.226 237.746 732.819 227.071 745.337 227.071C757.855 227.071 767.485 237.745 767.485 252.301C767.485 266.856 757.856 277.53 745.337 277.53ZM980.3 169.818H936.967V291.115H955.264V245.508H980.3C1000.52 245.508 1019.78 230.951 1019.78 207.663C1019.78 184.374 1000.52 169.818 980.3 169.818ZM981.264 228.041H955.264V186.315H981.264C994.746 186.315 1002.45 197.96 1002.45 206.693C1001.48 217.367 993.783 228.041 981.264 228.041ZM1092.01 210.574C1078.52 210.574 1065.05 216.396 1060.22 229.011L1076.6 235.804C1080.45 229.012 1086.22 227.071 1092.97 227.071C1102.6 227.071 1111.26 232.892 1112.22 242.596V243.566C1109.33 241.625 1101.63 238.715 1093.93 238.715C1076.6 238.715 1059.26 248.419 1059.26 265.886C1059.26 282.382 1073.71 293.055 1089.12 293.055C1101.63 293.055 1107.41 287.233 1112.22 281.411H1113.18V291.115H1130.52V244.538C1128.6 223.189 1112.22 210.574 1092.01 210.574ZM1090.08 277.53C1084.3 277.53 1075.63 274.619 1075.63 266.856C1075.63 257.152 1086.22 254.24 1094.9 254.24C1102.6 254.24 1106.45 256.182 1111.26 258.123C1109.33 269.767 1099.71 277.53 1090.08 277.53ZM1191.18 213.486L1170.97 265.886H1170.01L1148.82 213.486H1129.56L1161.33 287.234L1143.05 327.989H1161.33L1210.45 213.486H1191.18ZM1029.41 291.115H1047.71V169.818H1029.41V291.115Z" fill="white"/>
<path d="M100.16 72.773C97.272 75.685 96.309 80.536 96.309 86.359V300.81C96.309 306.632 98.235 311.484 101.124 314.395L102.086 315.365L221.494 195.04V193.1L100.16 72.773Z" fill="#00C8FF"/>
<path d="M260.009 235.802L220.527 196.017V193.105L260.009 153.32L260.971 154.291L308.157 181.461C321.639 189.224 321.639 201.839 308.157 209.602L260.009 235.802Z" fill="#FFCB00"/>
<path d="M260.971 234.837L220.526 194.082L100.156 315.378C104.971 320.23 111.711 320.23 120.379 316.348L260.971 234.837Z" fill="#F0304C"/>
<path d="M260.971 153.32L120.379 72.78C111.711 67.928 104.971 68.898 100.156 73.75L220.526 194.076L260.971 153.32Z" fill="#06E775"/>
</svg>
