<svg viewBox="0 0 24 24" fill="currentColor" aria-hidden="true" xmlns="http://www.w3.org/2000/svg"><path d="M6.7619 2C4.13746 2 2 4.13746 2 6.7619V17.2381C2 19.8625 4.13746 22 6.7619 22H17.2381C19.8625 22 22 19.8625 22 17.2381V6.7619C22 4.13746 19.8625 2 17.2381 2H6.7619ZM6.7619 2.95238H17.2381C19.3479 2.95238 21.0476 4.65206 21.0476 6.7619V17.2381C21.0476 19.3479 19.3479 21.0476 17.2381 21.0476H6.7619C4.65206 21.0476 2.95238 19.3479 2.95238 17.2381V6.7619C2.95238 4.65206 4.65206 2.95238 6.7619 2.95238Z"/><path d="M17.4545 5.6001C17.2134 5.6001 16.9822 5.69588 16.8117 5.86636C16.6412 6.03685 16.5455 6.26808 16.5455 6.50919C16.5455 6.75029 16.6412 6.98153 16.8117 7.15201C16.9822 7.3225 17.2134 7.41828 17.4545 7.41828C17.6957 7.41828 17.9269 7.3225 18.0974 7.15201C18.2679 6.98153 18.3636 6.75029 18.3636 6.50919C18.3636 6.26808 18.2679 6.03685 18.0974 5.86636C17.9269 5.69588 17.6957 5.6001 17.4545 5.6001ZM12 6.96373C9.24396 6.96373 7 9.20769 7 11.9637C7 14.7198 9.24396 16.9637 12 16.9637C14.756 16.9637 17 14.7198 17 11.9637C17 9.20769 14.756 6.96373 12 6.96373ZM12 7.87283C14.2647 7.87283 16.0909 9.699 16.0909 11.9637C16.0909 14.2285 14.2647 16.0546 12 16.0546C9.73527 16.0546 7.90909 14.2285 7.90909 11.9637C7.90909 9.699 9.73527 7.87283 12 7.87283Z"/></svg>
