<svg viewBox="0 0 24 24" fill="currentColor" aria-hidden="true" xmlns="http://www.w3.org/2000/svg"><path fill-rule="evenodd" clip-rule="evenodd" d="M12.5032 5.0001C12.381 5.00011 12.2638 5.04905 12.1773 5.13617C12.0909 5.2233 12.0421 5.34149 12.0419 5.46482C12.0419 5.46482 12.0368 7.7349 12.032 10.0102C12.0307 10.602 12.0293 11.1941 12.028 11.7468C12.0268 12.2566 12.0256 12.7328 12.0248 13.1442C12.023 14.0016 12.0221 14.5442 12.0221 14.5893C12.0221 15.4345 11.2616 16.1253 10.3949 16.1253C9.53517 16.1253 8.84886 15.4317 8.84886 14.5638C8.84886 13.696 9.53517 13.0032 10.3949 13.0032C10.4142 13.0032 10.4463 13.0074 10.4949 13.0138C10.5199 13.0171 10.5491 13.0209 10.5832 13.025C10.648 13.0329 10.7137 13.0268 10.776 13.0071C10.8383 12.9874 10.8957 12.9546 10.9445 12.9108C10.9933 12.8671 11.0324 12.8134 11.0591 12.7533C11.0858 12.6932 11.0996 12.628 11.0995 12.5621V10.6059C11.0995 10.4875 11.0547 10.3735 10.9744 10.2871C10.8941 10.2008 10.7841 10.1486 10.667 10.1412C10.6504 10.1401 10.6329 10.1388 10.6143 10.1375C10.5524 10.1329 10.4794 10.1276 10.3949 10.1276C7.97334 10.1276 6 12.1195 6 14.5638C6 17.0082 7.97334 19.0001 10.3949 19.0001C12.8164 19.0001 14.7898 17.0082 14.7898 14.5638V10.3504C15.4609 10.8921 16.2971 11.2353 17.2207 11.2353C17.3466 11.2353 17.4664 11.2277 17.581 11.2171C17.6956 11.2064 17.8021 11.1529 17.8796 11.0671C17.9571 10.9813 18 10.8694 18 10.7532V8.57876C18.0001 8.46105 17.956 8.34767 17.8766 8.26145C17.7972 8.17522 17.6884 8.12256 17.572 8.11404C16.1214 8.00899 14.9651 6.86833 14.8142 5.41753C14.8024 5.30305 14.749 5.19703 14.6643 5.11995C14.5796 5.04286 14.4696 5.00016 14.3556 5.0001H12.5032ZM14.0159 5.93137H12.9636C12.9633 6.04833 12.9628 6.2744 12.9621 6.58766C12.9604 7.33349 12.9576 8.57355 12.9546 10.0121C12.9533 10.6026 12.9519 11.1934 12.9506 11.7451C12.9494 12.2562 12.9482 12.7336 12.9474 13.146C12.9459 13.8131 12.9451 14.3296 12.9448 14.5153C12.9447 14.5683 12.9447 14.5943 12.9447 14.5893C12.9447 15.9828 11.7462 17.0566 10.3949 17.0566C9.03677 17.0566 7.92627 15.9348 7.92627 14.5638C7.92627 13.2708 8.92513 12.2341 10.1769 12.1165V11.1034C8.36219 11.2225 6.92259 12.701 6.92259 14.5638C6.92259 16.5048 8.47202 18.0688 10.3949 18.0688C12.3179 18.0688 13.8673 16.5048 13.8673 14.5638V9.19264C13.8671 9.09236 13.899 8.99471 13.9582 8.91421C14.0175 8.83371 14.1009 8.77466 14.196 8.74584C14.2912 8.71703 14.393 8.71999 14.4864 8.75428C14.5797 8.78857 14.6596 8.85237 14.7142 8.93618C15.2242 9.71929 16.0908 10.2161 17.0774 10.2667V8.93254C15.5403 8.63877 14.3512 7.46736 14.0159 5.93137Z"/><path d="M6.7619 2C4.13746 2 2 4.13746 2 6.7619V17.2381C2 19.8625 4.13746 22 6.7619 22H17.2381C19.8625 22 22 19.8625 22 17.2381V6.7619C22 4.13746 19.8625 2 17.2381 2H6.7619ZM6.7619 2.95238H17.2381C19.3479 2.95238 21.0476 4.65206 21.0476 6.7619V17.2381C21.0476 19.3479 19.3479 21.0476 17.2381 21.0476H6.7619C4.65206 21.0476 2.95238 19.3479 2.95238 17.2381V6.7619C2.95238 4.65206 4.65206 2.95238 6.7619 2.95238Z"/></svg>
